<mxfile host="65bd71144e">
    <diagram name="PÃ¡gina-1" id="oQjlDjJ2sg4duSR29GSX">
        <mxGraphModel dx="932" dy="608" grid="1" gridSize="10" guides="1" tooltips="1" connect="1" arrows="1" fold="1" page="1" pageScale="1" pageWidth="827" pageHeight="1169" math="0" shadow="0">
            <root>
                <mxCell id="0"/>
                <mxCell id="1" parent="0"/>
                <mxCell id="cI7-21xRHOuVwiusAM__-1" value="ParkingLot" style="swimlane;fontStyle=1;align=center;verticalAlign=top;childLayout=stackLayout;horizontal=1;startSize=27.222222464425222;horizontalStack=0;resizeParent=1;resizeParentMax=0;resizeLast=0;collapsible=0;marginBottom=0;" parent="1" vertex="1">
                    <mxGeometry x="108" y="20" width="283" height="197.22222246442522" as="geometry"/>
                </mxCell>
                <mxCell id="cI7-21xRHOuVwiusAM__-2" value="+String name" style="text;strokeColor=none;fillColor=none;align=left;verticalAlign=top;spacingLeft=4;spacingRight=4;overflow=hidden;rotatable=0;points=[[0,0.5],[1,0.5]];portConstraint=eastwest;" parent="cI7-21xRHOuVwiusAM__-1" vertex="1">
                    <mxGeometry y="27.222222464425222" width="283" height="27" as="geometry"/>
                </mxCell>
                <mxCell id="cI7-21xRHOuVwiusAM__-3" value="+String address" style="text;strokeColor=none;fillColor=none;align=left;verticalAlign=top;spacingLeft=4;spacingRight=4;overflow=hidden;rotatable=0;points=[[0,0.5],[1,0.5]];portConstraint=eastwest;" parent="cI7-21xRHOuVwiusAM__-1" vertex="1">
                    <mxGeometry y="54.22222246442522" width="283" height="27" as="geometry"/>
                </mxCell>
                <mxCell id="cI7-21xRHOuVwiusAM__-4" value="+List vehicles" style="text;strokeColor=none;fillColor=none;align=left;verticalAlign=top;spacingLeft=4;spacingRight=4;overflow=hidden;rotatable=0;points=[[0,0.5],[1,0.5]];portConstraint=eastwest;" parent="cI7-21xRHOuVwiusAM__-1" vertex="1">
                    <mxGeometry y="81.22222246442522" width="283" height="27" as="geometry"/>
                </mxCell>
                <mxCell id="cI7-21xRHOuVwiusAM__-5" style="line;strokeWidth=1;fillColor=none;align=left;verticalAlign=middle;spacingTop=-1;spacingLeft=3;spacingRight=3;rotatable=0;labelPosition=right;points=[];portConstraint=eastwest;strokeColor=inherit;" parent="cI7-21xRHOuVwiusAM__-1" vertex="1">
                    <mxGeometry y="108.22222246442522" width="283" height="8" as="geometry"/>
                </mxCell>
                <mxCell id="cI7-21xRHOuVwiusAM__-6" value="+void addVehicle(Vehicle vehicle)" style="text;strokeColor=none;fillColor=none;align=left;verticalAlign=top;spacingLeft=4;spacingRight=4;overflow=hidden;rotatable=0;points=[[0,0.5],[1,0.5]];portConstraint=eastwest;" parent="cI7-21xRHOuVwiusAM__-1" vertex="1">
                    <mxGeometry y="116.22222246442522" width="283" height="27" as="geometry"/>
                </mxCell>
                <mxCell id="cI7-21xRHOuVwiusAM__-7" value="+void removeVehicle(Vehicle vehicle)" style="text;strokeColor=none;fillColor=none;align=left;verticalAlign=top;spacingLeft=4;spacingRight=4;overflow=hidden;rotatable=0;points=[[0,0.5],[1,0.5]];portConstraint=eastwest;" parent="cI7-21xRHOuVwiusAM__-1" vertex="1">
                    <mxGeometry y="143.22222246442522" width="283" height="27" as="geometry"/>
                </mxCell>
                <mxCell id="cI7-21xRHOuVwiusAM__-8" value="+List getVehicles()" style="text;strokeColor=none;fillColor=none;align=left;verticalAlign=top;spacingLeft=4;spacingRight=4;overflow=hidden;rotatable=0;points=[[0,0.5],[1,0.5]];portConstraint=eastwest;" parent="cI7-21xRHOuVwiusAM__-1" vertex="1">
                    <mxGeometry y="170.22222246442522" width="283" height="27" as="geometry"/>
                </mxCell>
                <mxCell id="cI7-21xRHOuVwiusAM__-9" value="Vehicle" style="swimlane;fontStyle=1;align=center;verticalAlign=top;childLayout=stackLayout;horizontal=1;startSize=25.7;horizontalStack=0;resizeParent=1;resizeParentMax=0;resizeLast=0;collapsible=0;marginBottom=0;" parent="1" vertex="1">
                    <mxGeometry x="164.5" y="260" width="170" height="267.7" as="geometry"/>
                </mxCell>
                <mxCell id="cI7-21xRHOuVwiusAM__-10" value="+String licensePlate" style="text;strokeColor=none;fillColor=none;align=left;verticalAlign=top;spacingLeft=4;spacingRight=4;overflow=hidden;rotatable=0;points=[[0,0.5],[1,0.5]];portConstraint=eastwest;" parent="cI7-21xRHOuVwiusAM__-9" vertex="1">
                    <mxGeometry y="25.7" width="170" height="26" as="geometry"/>
                </mxCell>
                <mxCell id="cI7-21xRHOuVwiusAM__-11" value="+String make" style="text;strokeColor=none;fillColor=none;align=left;verticalAlign=top;spacingLeft=4;spacingRight=4;overflow=hidden;rotatable=0;points=[[0,0.5],[1,0.5]];portConstraint=eastwest;" parent="cI7-21xRHOuVwiusAM__-9" vertex="1">
                    <mxGeometry y="51.7" width="170" height="26" as="geometry"/>
                </mxCell>
                <mxCell id="cI7-21xRHOuVwiusAM__-12" value="+String model" style="text;strokeColor=none;fillColor=none;align=left;verticalAlign=top;spacingLeft=4;spacingRight=4;overflow=hidden;rotatable=0;points=[[0,0.5],[1,0.5]];portConstraint=eastwest;" parent="cI7-21xRHOuVwiusAM__-9" vertex="1">
                    <mxGeometry y="77.7" width="170" height="26" as="geometry"/>
                </mxCell>
                <mxCell id="cI7-21xRHOuVwiusAM__-13" value="+String color" style="text;strokeColor=none;fillColor=none;align=left;verticalAlign=top;spacingLeft=4;spacingRight=4;overflow=hidden;rotatable=0;points=[[0,0.5],[1,0.5]];portConstraint=eastwest;" parent="cI7-21xRHOuVwiusAM__-9" vertex="1">
                    <mxGeometry y="103.7" width="170" height="26" as="geometry"/>
                </mxCell>
                <mxCell id="cI7-21xRHOuVwiusAM__-14" value="+String notes" style="text;strokeColor=none;fillColor=none;align=left;verticalAlign=top;spacingLeft=4;spacingRight=4;overflow=hidden;rotatable=0;points=[[0,0.5],[1,0.5]];portConstraint=eastwest;" parent="cI7-21xRHOuVwiusAM__-9" vertex="1">
                    <mxGeometry y="129.7" width="170" height="26" as="geometry"/>
                </mxCell>
                <mxCell id="cI7-21xRHOuVwiusAM__-15" value="+DateTime entryTime" style="text;strokeColor=none;fillColor=none;align=left;verticalAlign=top;spacingLeft=4;spacingRight=4;overflow=hidden;rotatable=0;points=[[0,0.5],[1,0.5]];portConstraint=eastwest;" parent="cI7-21xRHOuVwiusAM__-9" vertex="1">
                    <mxGeometry y="155.7" width="170" height="26" as="geometry"/>
                </mxCell>
                <mxCell id="cI7-21xRHOuVwiusAM__-16" value="+DateTime exitTime" style="text;strokeColor=none;fillColor=none;align=left;verticalAlign=top;spacingLeft=4;spacingRight=4;overflow=hidden;rotatable=0;points=[[0,0.5],[1,0.5]];portConstraint=eastwest;" parent="cI7-21xRHOuVwiusAM__-9" vertex="1">
                    <mxGeometry y="181.7" width="170" height="26" as="geometry"/>
                </mxCell>
                <mxCell id="cI7-21xRHOuVwiusAM__-17" value="+float debt" style="text;strokeColor=none;fillColor=none;align=left;verticalAlign=top;spacingLeft=4;spacingRight=4;overflow=hidden;rotatable=0;points=[[0,0.5],[1,0.5]];portConstraint=eastwest;" parent="cI7-21xRHOuVwiusAM__-9" vertex="1">
                    <mxGeometry y="207.7" width="170" height="26" as="geometry"/>
                </mxCell>
                <mxCell id="cI7-21xRHOuVwiusAM__-18" style="line;strokeWidth=1;fillColor=none;align=left;verticalAlign=middle;spacingTop=-1;spacingLeft=3;spacingRight=3;rotatable=0;labelPosition=right;points=[];portConstraint=eastwest;strokeColor=inherit;" parent="cI7-21xRHOuVwiusAM__-9" vertex="1">
                    <mxGeometry y="233.7" width="170" height="8" as="geometry"/>
                </mxCell>
                <mxCell id="cI7-21xRHOuVwiusAM__-19" value="+void calculateDebt()" style="text;strokeColor=none;fillColor=none;align=left;verticalAlign=top;spacingLeft=4;spacingRight=4;overflow=hidden;rotatable=0;points=[[0,0.5],[1,0.5]];portConstraint=eastwest;" parent="cI7-21xRHOuVwiusAM__-9" vertex="1">
                    <mxGeometry y="241.7" width="170" height="26" as="geometry"/>
                </mxCell>
                <mxCell id="cI7-21xRHOuVwiusAM__-20" value="ParkingFeeCalculator" style="swimlane;fontStyle=1;align=center;verticalAlign=top;childLayout=stackLayout;horizontal=1;startSize=29.55555419921875;horizontalStack=0;resizeParent=1;resizeParentMax=0;resizeLast=0;collapsible=0;marginBottom=0;" parent="1" vertex="1">
                    <mxGeometry x="20" y="570" width="459" height="67.55555419921875" as="geometry"/>
                </mxCell>
                <mxCell id="cI7-21xRHOuVwiusAM__-21" style="line;strokeWidth=1;fillColor=none;align=left;verticalAlign=middle;spacingTop=-1;spacingLeft=3;spacingRight=3;rotatable=0;labelPosition=right;points=[];portConstraint=eastwest;strokeColor=inherit;" parent="cI7-21xRHOuVwiusAM__-20" vertex="1">
                    <mxGeometry y="29.55555419921875" width="459" height="8" as="geometry"/>
                </mxCell>
                <mxCell id="cI7-21xRHOuVwiusAM__-22" value="+float calculateFee(DateTime entryTime, DateTime exitTime)" style="text;strokeColor=none;fillColor=none;align=left;verticalAlign=top;spacingLeft=4;spacingRight=4;overflow=hidden;rotatable=0;points=[[0,0.5],[1,0.5]];portConstraint=eastwest;" parent="cI7-21xRHOuVwiusAM__-20" vertex="1">
                    <mxGeometry y="37.55555419921875" width="459" height="30" as="geometry"/>
                </mxCell>
                <mxCell id="cI7-21xRHOuVwiusAM__-23" value="" style="curved=1;startArrow=none;endArrow=none;exitX=0.49992640195381516;exitY=0.997766619351641;entryX=0.5028186573701746;entryY=-0.001677142449145047;rounded=0;" parent="1" source="cI7-21xRHOuVwiusAM__-1" target="cI7-21xRHOuVwiusAM__-9" edge="1">
                    <mxGeometry relative="1" as="geometry">
                        <Array as="points"/>
                    </mxGeometry>
                </mxCell>
                <mxCell id="cI7-21xRHOuVwiusAM__-26" value="" style="curved=1;startArrow=none;endArrow=none;exitX=0.5028186573701746;exitY=0.9983228575508549;entryX=0.49995462255540235;entryY=-0.005420033524676067;rounded=0;" parent="1" source="cI7-21xRHOuVwiusAM__-9" target="cI7-21xRHOuVwiusAM__-20" edge="1">
                    <mxGeometry relative="1" as="geometry">
                        <Array as="points"/>
                    </mxGeometry>
                </mxCell>
            </root>
        </mxGraphModel>
    </diagram>
</mxfile>